<svg width="784" height="722" viewBox="0 0 784 722" fill="none" xmlns="http://www.w3.org/2000/svg">
<g clip-path="url(#clip0_3_20)">
<path d="M42.8923 256.486C55.6964 280.236 82.8712 290.431 82.8712 290.431C82.8712 290.431 89.2865 262.12 76.4825 238.371C63.6784 214.622 36.5036 204.427 36.5036 204.427C36.5036 204.427 30.0883 232.737 42.8923 256.486Z" fill="#FF1FA3"/>
<path d="M51.693 248.673C74.8096 262.583 83.7125 290.212 83.7125 290.212C83.7125 290.212 55.1361 295.288 32.0195 281.378C8.90293 267.468 0 239.84 0 239.84C0 239.84 28.5765 234.763 51.693 248.673Z" fill="#0066FF"/>
<path d="M784 642.66C784 667.699 724.499 722 651.101 722C577.703 722 518.202 667.699 518.202 642.66C518.202 617.622 577.703 631.326 651.101 631.326C724.499 631.326 784 617.622 784 642.66Z" fill="#3F3D56"/>
<path opacity="0.1" d="M784 642.66C784 667.699 724.499 722 651.101 722C577.703 722 518.202 667.699 518.202 642.66C518.202 617.622 577.703 631.326 651.101 631.326C724.499 631.326 784 617.622 784 642.66Z" fill="black"/>
<path d="M651.101 687.997C724.499 687.997 784 667.699 784 642.661C784 617.622 724.499 597.324 651.101 597.324C577.703 597.324 518.202 617.622 518.202 642.661C518.202 667.699 577.703 687.997 651.101 687.997Z" fill="#3F3D56"/>
<path d="M500.689 310.877H78.297V551.987H500.689V310.877Z" fill="#F1F1F1"/>
<path d="M697.976 80.0713C720.451 80.0713 738.67 63.0026 738.67 41.9471C738.67 20.8917 720.451 3.82297 697.976 3.82297C675.502 3.82297 657.283 20.8917 657.283 41.9471C657.283 63.0026 675.502 80.0713 697.976 80.0713Z" fill="#2F2E41"/>
<path d="M579.501 279.45L569.198 293.876C569.198 293.876 519.748 304.18 538.292 319.635C556.836 335.091 583.622 305.21 583.622 305.21L598.045 286.663L579.501 279.45Z" fill="#FFB8B8"/>
<path d="M633.072 115.62C633.072 115.62 619.679 115.62 616.589 134.166C613.498 152.713 610.407 214.536 610.407 214.536C610.407 214.536 567.138 271.207 574.35 278.42C581.561 285.633 589.803 299.028 594.954 296.967C600.105 294.906 644.405 234.114 644.405 234.114L633.072 115.62Z" fill="#0066FF"/>
<path opacity="0.1" d="M633.072 115.62C633.072 115.62 619.679 115.62 616.589 134.166C613.498 152.713 610.407 214.536 610.407 214.536C610.407 214.536 567.138 271.207 574.35 278.42C581.561 285.633 589.803 299.028 594.954 296.967C600.105 294.906 644.405 234.114 644.405 234.114L633.072 115.62Z" fill="black"/>
<path d="M674.281 63.07C674.281 63.07 673.251 103.255 660.888 105.316C648.526 107.376 652.647 120.771 652.647 120.771C652.647 120.771 692.825 144.47 719.611 120.771L724.762 108.407C724.762 108.407 706.218 95.0118 714.46 76.465L674.281 63.07Z" fill="#FFB8B8"/>
<path d="M605.256 310.362C605.256 310.362 544.473 423.704 567.138 458.737C589.803 493.77 623.8 565.897 628.951 565.897C634.103 565.897 662.949 551.472 660.888 542.198C658.828 532.925 627.921 463.889 619.679 457.707C611.438 451.524 615.559 435.038 616.589 434.008C617.619 432.978 651.616 378.367 651.616 378.367C651.616 378.367 650.586 464.919 654.707 478.314C658.828 491.709 653.677 587.535 658.828 591.657C663.979 595.778 687.674 602.991 691.795 596.808C695.916 590.626 708.279 496.861 700.037 475.223L715.49 326.848L605.256 310.362Z" fill="#2F2E41"/>
<path d="M660.888 585.474L635.133 632.872C635.133 632.872 598.045 659.662 623.8 663.783C649.556 667.905 665.009 657.601 665.009 657.601L687.674 641.115V593.717L660.888 585.474Z" fill="#2F2E41"/>
<path d="M625.861 558.684L639.254 590.626C639.254 590.626 644.405 604.021 639.254 607.112C634.103 610.203 619.679 628.75 628.951 630.811C630.817 631.177 632.712 631.365 634.613 631.374C642.334 631.504 650.001 630.07 657.153 627.159C664.306 624.248 670.795 619.92 676.231 614.435L684.583 606.082C684.583 606.082 655.974 540.191 656.371 540.679C656.767 541.168 625.861 558.684 625.861 558.684Z" fill="#2F2E41"/>
<path d="M700.037 87.7992C719.382 87.7992 735.064 72.1144 735.064 52.7662C735.064 33.4179 719.382 17.7331 700.037 17.7331C680.692 17.7331 665.009 33.4179 665.009 52.7662C665.009 72.1144 680.692 87.7992 700.037 87.7992Z" fill="#FFB8B8"/>
<path d="M720.126 101.709L709.309 112.528C709.309 112.528 676.342 124.893 660.888 112.528C660.888 112.528 666.555 100.679 666.555 101.709C666.555 102.74 621.74 109.437 617.619 127.984C613.498 146.531 620.71 178.473 620.71 178.473C620.71 178.473 591.863 314.483 603.196 317.575C614.528 320.666 720.641 346.425 719.611 326.848C718.581 307.271 727.853 226.901 727.853 226.901L763.911 157.865C763.911 157.865 758.759 135.197 746.397 127.984C734.034 120.771 720.126 101.709 720.126 101.709Z" fill="#0066FF"/>
<path d="M674.281 303.149L660.888 311.392C660.888 311.392 609.377 346.425 636.163 352.608C662.949 358.79 678.402 327.878 678.402 327.878L688.704 315.514L674.281 303.149Z" fill="#FFB8B8"/>
<path opacity="0.1" d="M750.518 151.683L759.79 160.956C759.79 160.956 765.971 247.509 753.608 265.025C741.246 282.542 684.583 329.939 681.493 326.848C678.402 323.757 658.828 308.301 662.949 306.24C667.07 304.18 721.86 246.922 721.86 246.922L717.551 167.139L750.518 151.683Z" fill="black"/>
<path d="M754.639 148.592L763.911 157.865C763.911 157.865 770.092 244.417 757.729 261.934C745.367 279.45 688.704 326.848 685.614 323.757C682.523 320.666 662.949 305.21 667.07 303.149C671.191 301.088 725.981 243.831 725.981 243.831L721.672 164.048L754.639 148.592Z" fill="#0066FF"/>
<path d="M685.55 3.00394C685.55 3.00394 673.643 -1.32649 657.407 7.87566L666.066 10.0409C666.066 10.0409 653.077 11.1235 651.453 28.4452H657.407C657.407 28.4452 653.618 43.6016 657.407 47.932L659.842 43.331L666.878 57.4049L668.502 50.3679L671.749 51.4505L673.914 40.0832C673.914 40.0832 679.326 48.2027 683.656 48.744V41.7071C683.656 41.7071 695.563 55.2396 699.351 54.6983L693.939 47.1201L701.516 48.744L698.269 43.331L717.753 48.744L713.423 43.331L726.953 47.6614L733.448 50.3679C733.448 50.3679 742.649 29.2571 729.659 14.6419C716.67 0.0267448 697.728 -3.22104 685.55 3.00394Z" fill="#2F2E41"/>
<path d="M345.226 441.821C344.361 442.366 343.465 442.872 342.54 443.339C335.014 447.125 326.294 447.77 318.293 445.134C310.292 442.497 303.663 436.794 299.861 429.275L293.008 415.684L297.608 413.364L304.461 426.956C306.035 430.08 308.208 432.863 310.857 435.147C313.506 437.431 316.579 439.17 319.9 440.266C323.222 441.361 326.726 441.792 330.214 441.532C333.702 441.272 337.104 440.328 340.227 438.753C343.35 437.178 346.131 435.003 348.413 432.352C350.695 429.701 352.433 426.627 353.526 423.304C354.62 419.982 355.048 416.476 354.787 412.988C354.525 409.5 353.579 406.097 352.002 402.975L323.222 345.899C321.647 342.776 319.474 339.995 316.824 337.713C314.175 335.431 311.103 333.694 307.782 332.6C304.462 331.505 300.958 331.076 297.472 331.336C293.985 331.596 290.584 332.54 287.463 334.115C284.341 335.689 281.56 337.863 279.279 340.513C276.997 343.162 275.26 346.235 274.166 349.556C273.072 352.878 272.642 356.382 272.902 359.869C273.162 363.356 274.106 366.757 275.681 369.879L285.87 390.087L281.27 392.407L271.081 372.199C267.289 364.674 266.641 355.95 269.279 347.947C271.917 339.944 277.625 333.317 285.148 329.522C292.671 325.728 301.392 325.077 309.395 327.713C317.397 330.349 324.025 336.056 327.822 343.579L356.602 400.656C360.156 407.705 360.96 415.825 358.857 423.434C356.754 431.043 351.895 437.598 345.226 441.821V441.821Z" fill="#3F3D56"/>
<path d="M348.009 512.27C347.156 512.808 346.271 513.308 345.354 513.772C337.828 517.557 329.108 518.203 321.107 515.566C313.106 512.929 306.478 507.226 302.676 499.708L273.895 442.631C270.1 435.105 269.45 426.381 272.088 418.376C274.725 410.371 280.434 403.741 287.958 399.946C295.482 396.151 304.206 395.501 312.209 398.138C320.213 400.776 326.841 406.486 330.636 414.011L338.196 429.005L333.597 431.325L326.036 416.331C324.462 413.209 322.288 410.427 319.639 408.145C316.99 405.863 313.917 404.126 310.597 403.032C307.276 401.937 303.773 401.508 300.286 401.768C296.8 402.028 293.399 402.972 290.277 404.547C287.155 406.121 284.374 408.295 282.093 410.945C279.811 413.595 278.074 416.668 276.98 419.989C275.886 423.31 275.457 426.814 275.717 430.301C275.976 433.788 276.921 437.189 278.495 440.311L307.276 497.388C308.849 500.512 311.022 503.296 313.671 505.579C316.32 507.863 319.393 509.602 322.715 510.698C326.036 511.793 329.541 512.224 333.029 511.964C336.516 511.704 339.919 510.76 343.041 509.185C346.164 507.61 348.946 505.435 351.228 502.784C353.51 500.133 355.247 497.059 356.341 493.736C357.434 490.414 357.862 486.908 357.601 483.42C357.339 479.932 356.393 476.53 354.817 473.407L344.91 453.761L349.51 451.441L359.417 471.088C362.964 478.144 363.76 486.267 361.652 493.879C359.544 501.49 354.681 508.045 348.009 512.27V512.27Z" fill="#3F3D56"/>
<path d="M553.23 554.048H77.2668V289.239H553.23V554.048ZM79.3272 551.987H551.17V291.3H79.3272V551.987Z" fill="#2F2E41"/>
</g>
<defs>
<clipPath id="clip0_3_20">
<rect width="784" height="722" fill="white"/>
</clipPath>
</defs>
</svg>
