<svg width="277" height="75" viewBox="0 0 277 75" fill="none" xmlns="http://www.w3.org/2000/svg">
<path d="M73.9556 29.0875C83.0218 51.0179 61.2214 74.4969 42.5885 74.4969C23.9556 74.4969 -3.92776 62.643 0.461777 43.3121C5.20331 22.4311 19.3964 0 38.0293 0C55.1718 0 67.208 12.7657 73.9556 29.0875Z" fill="#0066FF"/>
<path d="M26.9389 27.8057C31.1168 23.6233 38.0598 23.6233 42.2377 27.8057C45.9948 31.5675 46.5508 37.5638 43.4625 41.8899L43.3799 42.0103C42.6059 43.0862 41.1031 43.342 40.0286 42.567C38.9465 41.7921 38.691 40.2874 39.465 39.2115L39.5476 39.0911C41.2684 36.676 40.9979 33.3732 38.9014 31.2741C36.542 28.9117 32.7022 28.9117 30.3353 31.2741L21.9044 39.7231C19.5367 42.0253 19.5367 45.9301 21.9044 48.3C23.9933 50.3991 27.2996 50.67 29.7041 48.9471L29.8243 48.7966C30.9064 48.0894 32.4092 48.3376 33.1756 49.421C33.9496 50.5044 33.7016 52.0092 32.6196 52.7841L32.4994 52.8669C28.1111 55.9591 22.2576 55.4625 18.5012 51.7082C14.2581 47.4574 14.2581 40.5658 18.5012 36.3224L26.9389 27.8057ZM49.1057 46.532C44.8602 50.7828 37.9847 50.7828 33.7392 46.532C29.9821 42.7702 29.4937 36.8416 32.582 32.5155L32.6647 32.3951C33.371 31.3192 34.8738 31.0634 36.016 31.8384C37.098 32.5456 37.3535 34.0503 36.5796 35.1939L36.4969 35.3143C34.7762 37.6616 35.0467 41.0322 37.1431 43.1313C39.5026 45.4937 43.3423 45.4937 45.7093 43.1313L54.1401 34.6823C56.5071 32.3123 56.5071 28.4076 54.1401 26.1054C52.0512 24.0085 48.745 23.7347 46.3405 25.4583L46.2202 25.5411C45.1382 26.316 43.6354 26 42.8689 24.9828C42.0949 23.901 42.3429 22.397 43.425 21.6243L43.5452 21.54C47.8658 18.4487 53.787 18.9391 57.5441 22.7002C61.7896 26.948 61.7896 33.8396 57.5441 38.083L49.1057 46.532Z" fill="white"/>
<path d="M111.477 26.764C112.101 26.764 112.605 26.98 112.989 27.412C113.373 27.82 113.565 28.336 113.565 28.96V41.992C113.565 43.984 113.133 45.748 112.269 47.284C111.429 48.82 110.265 50.02 108.777 50.884C107.289 51.748 105.561 52.18 103.593 52.18C101.625 52.18 99.8849 51.748 98.3729 50.884C96.8849 50.02 95.7089 48.82 94.8449 47.284C94.0049 45.748 93.5849 43.984 93.5849 41.992V28.96C93.5849 28.336 93.8009 27.82 94.2329 27.412C94.6649 26.98 95.2169 26.764 95.8889 26.764C96.4409 26.764 96.9329 26.98 97.3649 27.412C97.8209 27.82 98.0489 28.336 98.0489 28.96V41.992C98.0489 43.192 98.3009 44.236 98.8049 45.124C99.3329 45.988 100.017 46.66 100.857 47.14C101.721 47.62 102.633 47.86 103.593 47.86C104.625 47.86 105.585 47.62 106.473 47.14C107.361 46.66 108.081 45.988 108.633 45.124C109.185 44.236 109.461 43.192 109.461 41.992V28.96C109.461 28.336 109.641 27.82 110.001 27.412C110.361 26.98 110.853 26.764 111.477 26.764ZM120.768 52C120.144 52 119.628 51.796 119.22 51.388C118.812 50.956 118.608 50.428 118.608 49.804V34.936C118.608 34.312 118.812 33.796 119.22 33.388C119.628 32.956 120.144 32.74 120.768 32.74C121.392 32.74 121.908 32.956 122.316 33.388C122.724 33.796 122.928 34.312 122.928 34.936V38.32L122.676 35.908C122.94 35.332 123.276 34.828 123.684 34.396C124.116 33.94 124.596 33.568 125.124 33.28C125.652 32.968 126.216 32.74 126.816 32.596C127.416 32.452 128.016 32.38 128.616 32.38C129.336 32.38 129.936 32.584 130.416 32.992C130.92 33.4 131.172 33.88 131.172 34.432C131.172 35.224 130.968 35.8 130.56 36.16C130.152 36.496 129.708 36.664 129.228 36.664C128.772 36.664 128.352 36.58 127.968 36.412C127.608 36.244 127.188 36.16 126.708 36.16C126.276 36.16 125.832 36.268 125.376 36.484C124.944 36.676 124.536 36.988 124.152 37.42C123.792 37.852 123.492 38.392 123.252 39.04C123.036 39.664 122.928 40.408 122.928 41.272V49.804C122.928 50.428 122.724 50.956 122.316 51.388C121.908 51.796 121.392 52 120.768 52ZM138.897 49.804C138.897 50.428 138.681 50.956 138.249 51.388C137.841 51.796 137.325 52 136.701 52C136.101 52 135.597 51.796 135.189 51.388C134.781 50.956 134.577 50.428 134.577 49.804V27.556C134.577 26.932 134.781 26.416 135.189 26.008C135.621 25.576 136.149 25.36 136.773 25.36C137.397 25.36 137.901 25.576 138.285 26.008C138.693 26.416 138.897 26.932 138.897 27.556V49.804ZM162.47 52.36C160.79 52.36 159.278 52.156 157.934 51.748C156.59 51.316 155.306 50.572 154.082 49.516C153.77 49.252 153.53 48.952 153.362 48.616C153.194 48.28 153.11 47.944 153.11 47.608C153.11 47.056 153.302 46.576 153.686 46.168C154.094 45.736 154.598 45.52 155.198 45.52C155.654 45.52 156.062 45.664 156.422 45.952C157.334 46.696 158.234 47.26 159.122 47.644C160.034 48.028 161.15 48.22 162.47 48.22C163.358 48.22 164.174 48.088 164.918 47.824C165.662 47.536 166.262 47.164 166.718 46.708C167.174 46.228 167.402 45.688 167.402 45.088C167.402 44.368 167.186 43.756 166.754 43.252C166.322 42.748 165.662 42.328 164.774 41.992C163.886 41.632 162.758 41.356 161.39 41.164C160.094 40.972 158.954 40.684 157.97 40.3C156.986 39.892 156.158 39.388 155.486 38.788C154.838 38.164 154.346 37.444 154.01 36.628C153.674 35.788 153.506 34.852 153.506 33.82C153.506 32.26 153.902 30.928 154.694 29.824C155.51 28.72 156.602 27.88 157.97 27.304C159.338 26.728 160.85 26.44 162.506 26.44C164.066 26.44 165.506 26.68 166.826 27.16C168.17 27.616 169.262 28.204 170.102 28.924C170.798 29.476 171.146 30.112 171.146 30.832C171.146 31.36 170.942 31.84 170.534 32.272C170.126 32.704 169.646 32.92 169.094 32.92C168.734 32.92 168.41 32.812 168.122 32.596C167.738 32.26 167.222 31.948 166.574 31.66C165.926 31.348 165.242 31.096 164.522 30.904C163.802 30.688 163.13 30.58 162.506 30.58C161.474 30.58 160.598 30.712 159.878 30.976C159.182 31.24 158.654 31.6 158.294 32.056C157.934 32.512 157.754 33.04 157.754 33.64C157.754 34.36 157.958 34.96 158.366 35.44C158.798 35.896 159.41 36.268 160.202 36.556C160.994 36.82 161.942 37.06 163.046 37.276C164.486 37.54 165.746 37.852 166.826 38.212C167.93 38.572 168.842 39.04 169.562 39.616C170.282 40.168 170.822 40.876 171.182 41.74C171.542 42.58 171.722 43.612 171.722 44.836C171.722 46.396 171.29 47.74 170.426 48.868C169.562 49.996 168.422 50.86 167.006 51.46C165.614 52.06 164.102 52.36 162.47 52.36ZM185.607 32.38C187.335 32.38 188.643 32.752 189.531 33.496C190.443 34.24 191.067 35.236 191.403 36.484C191.739 37.708 191.907 39.076 191.907 40.588V49.804C191.907 50.428 191.703 50.956 191.295 51.388C190.887 51.796 190.371 52 189.747 52C189.123 52 188.607 51.796 188.199 51.388C187.791 50.956 187.587 50.428 187.587 49.804V40.588C187.587 39.796 187.491 39.088 187.299 38.464C187.107 37.816 186.759 37.3 186.255 36.916C185.751 36.532 185.031 36.34 184.095 36.34C183.183 36.34 182.403 36.532 181.755 36.916C181.107 37.3 180.615 37.816 180.279 38.464C179.967 39.088 179.811 39.796 179.811 40.588V49.804C179.811 50.428 179.607 50.956 179.199 51.388C178.791 51.796 178.275 52 177.651 52C177.027 52 176.511 51.796 176.103 51.388C175.695 50.956 175.491 50.428 175.491 49.804V27.556C175.491 26.932 175.695 26.416 176.103 26.008C176.511 25.576 177.027 25.36 177.651 25.36C178.275 25.36 178.791 25.576 179.199 26.008C179.607 26.416 179.811 26.932 179.811 27.556V36.484L179.271 36.376C179.487 35.968 179.787 35.536 180.171 35.08C180.555 34.6 181.023 34.156 181.575 33.748C182.127 33.34 182.739 33.016 183.411 32.776C184.083 32.512 184.815 32.38 185.607 32.38ZM215.268 42.388C215.268 44.356 214.824 46.096 213.936 47.608C213.072 49.096 211.896 50.26 210.408 51.1C208.944 51.94 207.3 52.36 205.476 52.36C203.652 52.36 201.996 51.94 200.508 51.1C199.044 50.26 197.868 49.096 196.98 47.608C196.116 46.096 195.684 44.356 195.684 42.388C195.684 40.42 196.116 38.692 196.98 37.204C197.868 35.692 199.044 34.516 200.508 33.676C201.996 32.812 203.652 32.38 205.476 32.38C207.3 32.38 208.944 32.812 210.408 33.676C211.896 34.516 213.072 35.692 213.936 37.204C214.824 38.692 215.268 40.42 215.268 42.388ZM210.948 42.388C210.948 41.164 210.696 40.108 210.192 39.22C209.712 38.308 209.052 37.6 208.212 37.096C207.396 36.592 206.484 36.34 205.476 36.34C204.468 36.34 203.544 36.592 202.704 37.096C201.888 37.6 201.228 38.308 200.724 39.22C200.244 40.108 200.004 41.164 200.004 42.388C200.004 43.588 200.244 44.644 200.724 45.556C201.228 46.444 201.888 47.14 202.704 47.644C203.544 48.148 204.468 48.4 205.476 48.4C206.484 48.4 207.396 48.148 208.212 47.644C209.052 47.14 209.712 46.444 210.192 45.556C210.696 44.644 210.948 43.588 210.948 42.388ZM221.209 52C220.585 52 220.069 51.796 219.661 51.388C219.253 50.956 219.049 50.428 219.049 49.804V34.936C219.049 34.312 219.253 33.796 219.661 33.388C220.069 32.956 220.585 32.74 221.209 32.74C221.833 32.74 222.349 32.956 222.757 33.388C223.165 33.796 223.369 34.312 223.369 34.936V38.32L223.117 35.908C223.381 35.332 223.717 34.828 224.125 34.396C224.557 33.94 225.037 33.568 225.565 33.28C226.093 32.968 226.657 32.74 227.257 32.596C227.857 32.452 228.457 32.38 229.057 32.38C229.777 32.38 230.377 32.584 230.857 32.992C231.361 33.4 231.613 33.88 231.613 34.432C231.613 35.224 231.409 35.8 231.001 36.16C230.593 36.496 230.149 36.664 229.669 36.664C229.213 36.664 228.793 36.58 228.409 36.412C228.049 36.244 227.629 36.16 227.149 36.16C226.717 36.16 226.273 36.268 225.817 36.484C225.385 36.676 224.977 36.988 224.593 37.42C224.233 37.852 223.933 38.392 223.693 39.04C223.477 39.664 223.369 40.408 223.369 41.272V49.804C223.369 50.428 223.165 50.956 222.757 51.388C222.349 51.796 221.833 52 221.209 52ZM234.874 33.1H243.406C243.982 33.1 244.462 33.292 244.846 33.676C245.23 34.06 245.422 34.54 245.422 35.116C245.422 35.668 245.23 36.136 244.846 36.52C244.462 36.88 243.982 37.06 243.406 37.06H234.874C234.298 37.06 233.818 36.868 233.434 36.484C233.05 36.1 232.858 35.62 232.858 35.044C232.858 34.492 233.05 34.036 233.434 33.676C233.818 33.292 234.298 33.1 234.874 33.1ZM238.726 28.6C239.35 28.6 239.854 28.816 240.238 29.248C240.646 29.656 240.85 30.172 240.85 30.796V46.816C240.85 47.152 240.91 47.428 241.03 47.644C241.174 47.86 241.354 48.016 241.57 48.112C241.81 48.208 242.062 48.256 242.326 48.256C242.614 48.256 242.878 48.208 243.118 48.112C243.358 47.992 243.634 47.932 243.946 47.932C244.282 47.932 244.582 48.088 244.846 48.4C245.134 48.712 245.278 49.144 245.278 49.696C245.278 50.368 244.906 50.92 244.162 51.352C243.442 51.784 242.662 52 241.822 52C241.318 52 240.754 51.964 240.13 51.892C239.53 51.796 238.954 51.592 238.402 51.28C237.874 50.944 237.43 50.44 237.07 49.768C236.71 49.096 236.53 48.172 236.53 46.996V30.796C236.53 30.172 236.734 29.656 237.142 29.248C237.574 28.816 238.102 28.6 238.726 28.6Z" fill="black"/>
</svg>
